# xmcd CD database file
#
# Track frame offsets:
#	150
#	30360
#	55138
#	81772
#	115776
#	137931
#	171746
#	200570
#	234642
#
# Disc length: 3462 seconds
#
# Revision: 2
# Processed by: cddbd v1.5.2PL0 Copyright (c) Steve Scherf et al.
# Submitted via: CDex 1.70beta2
#
DISCID=7b0d8409
DTITLE=水野正敏 - 電気スタンダードジャズ2
DYEAR=2005
DGENRE=Jazz
TTITLE0=Nardis
TTITLE1=Donna Lee
TTITLE2=On Green Dolphin Street
TTITLE3=Here's That Rainy Day
TTITLE4=All The Things You Are
TTITLE5=How Long Has This Been Going On
TTITLE6=Another Me
TTITLE7=Summer Time
TTITLE8=Autumn Blues
EXTD=YEAR: 2005
EXTT0=
EXTT1=
EXTT2=
EXTT3=
EXTT4=
EXTT5=
EXTT6=
EXTT7=
EXTT8=
PLAYORDER=
